<svg width="222" height="161" viewBox="0 0 222 161" fill="none" xmlns="http://www.w3.org/2000/svg">
<path d="M6.00789 104.97L6.78384 101.348L7.95755 97.498L9.67248 94.3669L11.883 92.0397L14.5303 90.582L17.5494 90.0198L20.8488 90.3728L24.3569 91.641L27.9693 93.7785L31.5948 96.7332L35.1485 100.433L38.5197 104.774L41.6366 109.644L44.4078 114.919L46.7618 120.456L48.6332 126.11L49.983 131.738L50.7719 137.184L50.9741 142.315L50.5828 146.983L49.6178 151.081L48.105 154.487L46.0706 157.121L43.5797 158.912L40.6976 159.815L37.4894 159.801L34.0531 158.873L30.4667 157.062M27.3238 155.108L30.4667 157.056M14.0087 90.7846L127.761 42.1891L130.773 41.4505L134.099 41.6662L137.653 42.8298L141.33 44.9085L145.034 47.8436L148.66 51.5565L152.115 55.9494L155.304 60.8978L158.134 66.2712L160.534 71.9125L162.438 77.6846L163.787 83.411L164.557 88.9543L164.713 94.1511L164.263 98.8577L163.207 102.956L161.59 106.329L159.438 108.885L156.823 110.552M43.0711 159.154L156.823 110.559M176.098 64.565L181.732 122.188M176.098 64.565L139.524 17.5188M176.098 64.565L214.766 48.0462M181.732 122.188L150.792 132.771L139.335 118.024M181.732 122.188L220.399 105.669M110.677 49.4843L108.584 28.1021M108.584 28.1021L139.524 17.5188M108.584 28.1021L147.251 11.5833M139.524 17.5188L178.191 0.999995M122.903 44.2613L124.866 41.0386L127.337 38.6854L130.265 37.2538L133.564 36.7896L137.17 37.2995L140.972 38.7703L144.878 41.1694L148.796 44.4248L152.618 48.4646L156.256 53.1842L159.608 58.4595L162.594 64.1663L165.137 70.141L167.172 76.253L168.645 82.3324L169.525 88.2287L169.78 93.7916L169.415 98.8839L168.43 103.368L166.859 107.14L164.733 110.095L162.105 112.16L159.053 113.291L155.643 113.448L151.972 112.631M214.766 48.0462L215.822 51.3081L216.813 54.6158L217.719 57.9693L218.541 61.3881L218.639 61.813L218.737 62.2509L218.919 63.1138L219.271 64.8526L219.597 66.598L219.891 68.3564L220.165 70.1214L220.412 71.8995L220.628 73.684L220.817 75.4751M214.766 48.0462L220.817 75.4751M214.766 48.0462L213.22 44.8497L211.59 41.6662L210.742 40.0712L209.869 38.4892L209.64 38.0905L209.419 37.6917L209.19 37.2995L208.962 36.9008L208.506 36.1163L208.036 35.3254L207.084 33.763L206.113 32.2138L205.109 30.6711L204.085 29.1414L203.028 27.6249L201.953 26.1148L200.844 24.6244L199.709 23.1405M214.766 48.0462L199.709 23.1405M220.817 75.4751L220.98 77.2989L221.117 79.1293L221.221 80.9662L221.306 82.8161L221.391 86.5422L221.371 90.3074L221.254 94.1054L221.051 97.9295L220.765 101.786L220.399 105.669M220.817 75.4751L220.399 105.669M178.191 0.999995L181.165 3.60823L184.08 6.26875L184.803 6.93552L185.514 7.61536L186.225 8.28866L186.929 8.9685L188.318 10.3347L189.681 11.714L191.024 13.1064L192.348 14.5053L193.639 15.9107L194.904 17.3358L196.149 18.7673L197.362 20.212L198.549 21.6697L199.709 23.1405M178.191 0.999995L199.709 23.1405M178.191 0.999995L176.979 1.35299L175.694 1.73867L174.325 2.16357L172.858 2.62115L171.293 3.12449L169.623 3.6736L168.75 3.96776L167.843 4.26846L166.917 4.58223L165.952 4.90907M147.251 11.5833L149.872 10.6223L152.435 9.6941L154.919 8.79854L157.332 7.93567L157.625 7.83108L157.919 7.71995L158.212 7.6219L158.506 7.51731L159.079 7.30813L159.647 7.10548L160.768 6.71327L161.864 6.32759L162.927 5.95498L163.963 5.59545L164.974 5.24899L165.952 4.90907M147.251 11.5833L165.952 4.90907M18.0971 146.42L21.3705 150.212L24.7742 153.304L28.191 155.624L31.5426 157.095L34.7182 157.677L37.6329 157.357L40.1955 156.141L42.3408 154.069L44.0101 151.186L45.1447 147.59L45.7119 143.381L45.7054 138.681L45.1251 133.615L43.9775 128.346L42.2951 123.005L40.1433 117.762L37.5612 112.768L34.6465 108.153L31.4644 104.061L28.1128 100.61L24.6895 97.8903L21.2922 95.988L18.0189 94.9552L14.9607 94.8244L12.2155 95.5958L9.84853 97.2496L7.93799 99.7337L6.52954 102.983L5.67534 106.898L5.38843 111.376L5.68838 116.272L6.55562 121.462L7.97711 126.783L9.9007 132.091L12.2742 137.229L15.0324 142.054L18.0971 146.42Z" stroke="#CBD2D9" stroke-miterlimit="10" stroke-linecap="round" stroke-linejoin="round"/>
<path d="M93.7363 97.1189L145.112 75.1679L155.995 70.5137L166.878 65.8659M1 136.733L22.7658 127.437L74.1418 105.486L1 136.733ZM78.4976 103.623L89.3805 98.9754L78.4976 103.623Z" stroke="#CBD2D9" stroke-width="0.2268" stroke-miterlimit="10" stroke-linecap="round" stroke-linejoin="round"/>
</svg>
