<svg width="223" height="163" viewBox="0 0 223 163" fill="none" xmlns="http://www.w3.org/2000/svg">
<path d="M6.00789 105.97L6.78384 102.348L7.95755 98.498L9.67248 95.3669L11.883 93.0397L14.5303 91.582L17.5494 91.0198L20.8488 91.3728L24.3569 92.641L27.9693 94.7785L31.5948 97.7332L35.1485 101.433L38.5197 105.774L41.6366 110.644L44.4078 115.919L46.7618 121.456L48.6332 127.11L49.983 132.738L50.7719 138.184L50.9741 143.315L50.5828 147.983L49.6178 152.081L48.105 155.487L46.0706 158.121L43.5797 159.912L40.6976 160.815L37.4894 160.801L34.0531 159.873L30.4667 158.062M27.3238 156.108L30.4667 158.056M14.0087 91.7846L127.761 43.1891L130.773 42.4505L134.099 42.6662L137.653 43.8298L141.33 45.9085L145.034 48.8436L148.66 52.5565L152.115 56.9494L155.304 61.8978L158.134 67.2712L160.534 72.9125L162.438 78.6846L163.787 84.411L164.557 89.9543L164.713 95.1511L164.263 99.8577L163.207 103.956L161.59 107.329L159.438 109.885L156.823 111.552M43.0711 160.154L156.823 111.559M176.098 65.565L181.732 123.188M176.098 65.565L139.524 18.5188M176.098 65.565L214.766 49.0462M181.732 123.188L150.792 133.771L139.335 119.024M181.732 123.188L220.399 106.669M110.677 50.4843L108.584 29.1021M108.584 29.1021L139.524 18.5188M108.584 29.1021L147.251 12.5833M139.524 18.5188L178.191 2M122.903 45.2613L124.866 42.0386L127.337 39.6853L130.265 38.2538L133.564 37.7896L137.17 38.2995L140.972 39.7703L144.878 42.1694L148.796 45.4248L152.618 49.4646L156.256 54.1842L159.608 59.4595L162.594 65.1663L165.137 71.141L167.172 77.253L168.645 83.3324L169.525 89.2287L169.78 94.7916L169.415 99.8839L168.43 104.368L166.859 108.14L164.733 111.095L162.105 113.16L159.053 114.291L155.643 114.448L151.972 113.631M214.766 49.0462L215.822 52.3081L216.813 55.6158L217.719 58.9693L218.541 62.3881L218.639 62.813L218.737 63.2509L218.919 64.1138L219.271 65.8526L219.597 67.598L219.891 69.3564L220.165 71.1214L220.412 72.8995L220.628 74.684L220.817 76.4751M214.766 49.0462L220.817 76.4751M214.766 49.0462L213.22 45.8497L211.59 42.6662L210.742 41.0712L209.869 39.4892L209.64 39.0905L209.419 38.6917L209.19 38.2995L208.962 37.9008L208.506 37.1163L208.036 36.3254L207.084 34.763L206.113 33.2138L205.109 31.6711L204.085 30.1414L203.028 28.6249L201.953 27.1149L200.844 25.6244L199.709 24.1405M214.766 49.0462L199.709 24.1405M220.817 76.4751L220.98 78.299L221.117 80.1293L221.221 81.9662L221.306 83.8161L221.391 87.5422L221.371 91.3074L221.254 95.1054L221.051 98.9295L220.765 102.786L220.399 106.669M220.817 76.4751L220.399 106.669M178.191 2L181.165 4.60823L184.08 7.26875L184.803 7.93552L185.514 8.61536L186.225 9.28867L186.929 9.96851L188.318 11.3347L189.681 12.714L191.024 14.1064L192.348 15.5053L193.639 16.9107L194.904 18.3358L196.149 19.7673L197.362 21.212L198.549 22.6697L199.709 24.1405M178.191 2L199.709 24.1405M178.191 2L176.979 2.35298L175.694 2.73866L174.325 3.16357L172.858 3.62115L171.293 4.1245L169.623 4.6736L168.75 4.96776L167.843 5.26846L166.917 5.58223L165.952 5.90907M147.251 12.5833L149.872 11.6223L152.435 10.6941L154.919 9.79854L157.332 8.93567L157.625 8.83109L157.919 8.71996L158.212 8.6219L158.506 8.5173L159.079 8.30812L159.647 8.10548L160.768 7.71327L161.864 7.32759L162.927 6.95499L163.963 6.59546L164.974 6.24899L165.952 5.90907M147.251 12.5833L165.952 5.90907M18.0971 147.42L21.3705 151.212L24.7742 154.304L28.191 156.624L31.5426 158.095L34.7182 158.677L37.6329 158.357L40.1955 157.141L42.3408 155.069L44.0101 152.186L45.1446 148.59L45.7119 144.381L45.7054 139.681L45.1251 134.615L43.9775 129.346L42.2951 124.005L40.1433 118.762L37.5612 113.768L34.6465 109.153L31.4644 105.061L28.1128 101.61L24.6895 98.8903L21.2922 96.988L18.0189 95.9552L14.9607 95.8244L12.2155 96.5958L9.84853 98.2496L7.93799 100.734L6.52954 103.983L5.67534 107.898L5.38843 112.376L5.68838 117.272L6.55562 122.462L7.97711 127.783L9.9007 133.091L12.2742 138.229L15.0324 143.054L18.0971 147.42Z" stroke="#323F4B" stroke-width="3" stroke-miterlimit="10" stroke-linecap="round" stroke-linejoin="round"/>
<path d="M93.7363 98.1189L145.112 76.1679L155.995 71.5137L166.878 66.8659M1 137.733L22.7658 128.437L74.1418 106.486L1 137.733ZM78.4976 104.623L89.3805 99.9754L78.4976 104.623Z" stroke="#323F4B" stroke-width="0.2268" stroke-miterlimit="10" stroke-linecap="round" stroke-linejoin="round"/>
</svg>
