<svg width="136" height="172" viewBox="0 0 136 172" fill="none" xmlns="http://www.w3.org/2000/svg">
<path d="M124.359 46.6923L134 126.03M124.359 46.6923L84.9013 55.99M124.359 46.6923L78.7629 2L39.3051 11.3068M134 126.03L94.5332 135.328M134 126.03L98.063 160.693L58.5962 170M94.5332 135.328L92.8275 130.733L91.2222 126.084L89.7446 121.372L88.4038 116.615L87.209 111.785L86.1692 106.884L85.704 104.41L85.2844 101.919L85.1932 101.287L85.0929 100.664L84.9104 99.4005L84.7463 98.1457L84.5821 96.882M94.5332 135.328L84.5821 96.882M94.5332 135.328L91.204 137.729L87.9842 140.103L84.874 142.459L81.8914 144.788L79.0547 147.099L76.3549 149.383L75.0688 150.52L73.8192 151.639L72.6061 152.759L71.4386 153.869M94.5332 135.328L71.4386 153.869M84.5821 96.882L84.2993 94.3454L84.0622 91.8088L83.8615 89.2632L83.7156 86.7176L83.5423 81.6174L83.5332 76.5172L83.67 71.399L83.9527 66.2717L84.3723 61.1354L84.9013 55.99M84.5821 96.882L84.9013 55.99M84.5821 96.882L82.8856 86.5822L80.3134 76.3999L76.9204 66.5696L72.7977 57.2989L68.0182 48.7956L62.7098 41.2671L56.9635 34.858M84.5821 96.882L85.3756 107.064L85.2388 116.904L84.1716 126.192L82.2015 134.705L79.3831 142.269L75.7711 148.705L71.4386 153.869M84.9013 55.99L81.0158 53.5347L77.2214 51.0342L73.5182 48.4796L69.9337 45.8708L68.1824 44.5439L66.4677 43.1989L64.7803 41.8448L63.1294 40.4637L61.5149 39.0736L59.9552 37.6744L58.4411 36.2752L56.9635 34.858M84.9013 55.99L56.9635 34.858M56.9635 34.858L50.9345 29.7307L44.7413 25.9845L38.5299 23.7097L32.437 22.9695L26.5995 23.7549L21.1451 26.0658L16.2015 29.848M56.9635 34.858L55.5498 33.4408L54.1725 32.0055L52.8408 30.5702L51.5547 29.1259L49.1194 26.2192L46.8574 23.2765L44.7504 20.3066L42.7985 17.3187L42.3242 16.5604L42.0962 16.1903L41.8682 15.8112L41.4212 15.062L40.9834 14.3127L40.126 12.8052L39.3051 11.3068M56.9635 34.858L39.3051 11.3068M71.4386 153.869L66.495 157.651L61.0406 159.962L55.194 160.756L49.1012 160.007L42.8897 157.732L36.7056 153.995L30.6675 148.859M71.4386 153.869L70.8731 154.42L70.0431 155.241L69.7695 155.521L69.2405 156.062L68.2098 157.137L67.2247 158.193L65.3914 160.278L63.7313 162.309L62.2446 164.295L60.8947 166.236L59.6816 168.131L58.5962 170M71.4386 153.869L58.5962 170M30.6675 148.859L24.9303 142.459L19.6128 134.921L14.8425 126.427L10.7106 117.156L7.3267 107.317L4.75456 97.1347L3.04892 86.844M30.6675 148.859L32.136 150.276L33.6592 151.684L35.2189 153.075L36.8333 154.465L38.4842 155.846L40.1716 157.2L41.8864 158.545L43.6376 159.872L47.2222 162.481L50.9163 165.035L54.7197 167.536L58.5962 170M30.6675 148.859L58.5962 170M30.6675 148.859L29.2446 147.442L27.8765 146.015L26.5448 144.58L25.2587 143.136L22.8234 140.22L20.5614 137.277L18.4544 134.308L16.4934 131.32L16.2653 130.941L16.0282 130.57L15.5721 129.812L15.1252 129.063L14.6874 128.314L13.83 126.806L13.0091 125.308M3.04892 86.844L2.26451 76.6617L2.40133 66.8133L3.46849 57.5336L5.42952 49.0122L8.25705 41.4567L11.869 35.0205L16.2015 29.848M3.04892 86.844L2.90299 85.5802L2.76617 84.3075L2.70232 83.6756L2.63847 83.0347L2.58375 82.4028L2.52902 81.7619L2.33748 79.2163L2.18242 76.6617L2.00912 71.5614L2 66.4522L2.14594 61.343L2.42869 56.2247L2.83914 51.0974L3.36816 45.9701M3.04892 86.844L3.36816 45.9701M3.04892 86.844L3.3864 89.3625L3.76036 91.872L4.17081 94.3634L4.63599 96.8368L5.67579 101.729L6.87065 106.559L8.21144 111.325L9.68905 116.037L11.2944 120.695L13.0091 125.308M3.04892 86.844L13.0091 125.308M16.2015 29.848L16.7761 29.2974L17.369 28.7377L18.272 27.8982L18.5821 27.6184L19.8317 26.49L21.1269 25.3526L23.8267 23.0688L26.6725 20.7579L29.6551 18.42L32.7562 16.0639L35.976 13.6989L39.3051 11.3068M16.2015 29.848L39.3051 11.3068M16.2015 29.848L15.0705 30.9493L14.0033 32.0416L12.9726 33.1068L11.9876 34.1719L10.1633 36.2481L8.50332 38.2792L7.00746 40.2651L5.66667 42.2059L4.45357 44.1016L3.36816 45.9701M16.2015 29.848L3.36816 45.9701M54.063 55.5477L49.6849 52.3702L45.2338 50.4204L40.8648 49.7795L36.7148 50.4475L32.9113 52.4063L29.573 55.6018L26.8184 59.9257L24.7297 65.2426L23.3798 71.3809L22.796 78.1421L23.0058 85.3185L24.0091 92.6754L25.7695 99.9692L28.2231 106.983L31.2968 113.482L34.8997 119.26L38.9038 124.134L43.1907 127.953L47.6235 130.579L52.0473 131.943L56.3433 132.006L60.3474 130.742L63.9502 128.214L67.0423 124.495L69.505 119.711M70.0522 117.572L68.1915 123.602L65.6376 128.72L62.4544 132.773L58.7421 135.653L54.592 137.277L50.1318 137.593L45.4892 136.591L40.801 134.299L36.204 130.787L31.8259 126.156L27.7852 120.542L24.2098 114.105L21.1998 107.019L18.8375 99.4998L17.1957 91.7637L16.3201 84.0366L16.2289 76.5262L16.9403 69.4582L18.427 63.031L20.6343 57.4343L23.5166 52.8306L26.9826 49.3552L30.9229 47.0985L35.2463 46.1236L39.8068 46.4666L44.495 48.1185L49.1559 51.0342L53.6617 55.1144L57.8847 60.2597L61.7065 66.3078L65.0083 73.096L67.7081 80.4169L69.7148 88.0717L70.9826 95.8348L71.4569 103.49L71.1468 110.801L70.0522 117.572Z" stroke="#CBD2D9" stroke-width="3" stroke-miterlimit="10" stroke-linecap="round" stroke-linejoin="round"/>
<path d="M81.0333 83.1976L92.7599 80.3655L108.718 76.5161L124.667 72.6667M8.66669 100.667L40.5825 92.9678L52.3091 90.1357L8.66669 100.667ZM58.6923 88.596L74.6502 84.7374L58.6923 88.596Z" stroke="#CBD2D9" stroke-width="0.23" stroke-miterlimit="10" stroke-linecap="round" stroke-linejoin="round"/>
</svg>
