<svg width="134" height="170" viewBox="0 0 134 170" fill="none" xmlns="http://www.w3.org/2000/svg">
<path d="M123.359 45.6923L133 125.03M123.359 45.6923L83.9013 54.99M123.359 45.6923L77.7629 1L38.3051 10.3068M133 125.03L93.5332 134.328M133 125.03L97.063 159.693L57.5962 169M93.5332 134.328L91.8275 129.733L90.2222 125.084L88.7446 120.372L87.4038 115.615L86.209 110.785L85.1692 105.884L84.704 103.41L84.2844 100.919L84.1932 100.287L84.0929 99.6642L83.9104 98.4005L83.7463 97.1457L83.5821 95.882M93.5332 134.328L83.5821 95.882M93.5332 134.328L90.204 136.729L86.9842 139.103L83.874 141.459L80.8914 143.788L78.0547 146.099L75.3549 148.383L74.0688 149.52L72.8192 150.639L71.6061 151.759L70.4386 152.869M93.5332 134.328L70.4386 152.869M83.5821 95.882L83.2993 93.3454L83.0622 90.8088L82.8615 88.2632L82.7156 85.7176L82.5423 80.6174L82.5332 75.5172L82.67 70.399L82.9527 65.2717L83.3723 60.1354L83.9013 54.99M83.5821 95.882L83.9013 54.99M83.5821 95.882L81.8856 85.5822L79.3134 75.3999L75.9204 65.5696L71.7977 56.2989L67.0182 47.7956L61.7098 40.2671L55.9635 33.858M83.5821 95.882L84.3756 106.064L84.2388 115.904L83.1716 125.192L81.2015 133.705L78.3831 141.269L74.7711 147.705L70.4386 152.869M83.9013 54.99L80.0158 52.5347L76.2214 50.0342L72.5182 47.4796L68.9337 44.8708L67.1824 43.5439L65.4677 42.1989L63.7803 40.8448L62.1294 39.4637L60.5149 38.0736L58.9552 36.6744L57.4411 35.2752L55.9635 33.858M83.9013 54.99L55.9635 33.858M55.9635 33.858L49.9345 28.7307L43.7413 24.9845L37.5299 22.7097L31.437 21.9695L25.5995 22.7549L20.1451 25.0658L15.2015 28.848M55.9635 33.858L54.5498 32.4408L53.1725 31.0055L51.8408 29.5702L50.5547 28.1259L48.1194 25.2192L45.8574 22.2765L43.7504 19.3066L41.7985 16.3187L41.3242 15.5604L41.0962 15.1903L40.8682 14.8112L40.4212 14.062L39.9834 13.3127L39.126 11.8052L38.3051 10.3068M55.9635 33.858L38.3051 10.3068M70.4386 152.869L65.495 156.651L60.0406 158.962L54.194 159.756L48.1012 159.007L41.8897 156.732L35.7056 152.995L29.6675 147.859M70.4386 152.869L69.8731 153.42L69.0431 154.241L68.7695 154.521L68.2405 155.062L67.2098 156.137L66.2247 157.193L64.3914 159.278L62.7313 161.309L61.2446 163.295L59.8947 165.236L58.6816 167.131L57.5962 169M70.4386 152.869L57.5962 169M29.6675 147.859L23.9303 141.459L18.6128 133.921L13.8425 125.427L9.71061 116.156L6.3267 106.317L3.75456 96.1347L2.04892 85.844M29.6675 147.859L31.136 149.276L32.6592 150.684L34.2189 152.075L35.8333 153.465L37.4842 154.846L39.1716 156.2L40.8864 157.545L42.6376 158.872L46.2222 161.481L49.9163 164.035L53.7197 166.536L57.5962 169M29.6675 147.859L57.5962 169M29.6675 147.859L28.2446 146.442L26.8765 145.015L25.5448 143.58L24.2587 142.136L21.8234 139.22L19.5614 136.277L17.4544 133.308L15.4934 130.32L15.2653 129.941L15.0282 129.57L14.5721 128.812L14.1252 128.063L13.6874 127.314L12.83 125.806L12.0091 124.308M2.04892 85.844L1.26451 75.6617L1.40133 65.8133L2.46849 56.5336L4.42952 48.0122L7.25705 40.4567L10.869 34.0205L15.2015 28.848M2.04892 85.844L1.90299 84.5802L1.76617 83.3075L1.70232 82.6756L1.63847 82.0347L1.58375 81.4028L1.52902 80.7619L1.33748 78.2163L1.18242 75.6617L1.00912 70.5614L1 65.4522L1.14594 60.343L1.42869 55.2247L1.83914 50.0974L2.36816 44.9701M2.04892 85.844L2.36816 44.9701M2.04892 85.844L2.3864 88.3625L2.76036 90.872L3.17081 93.3634L3.63599 95.8368L4.67579 100.729L5.87065 105.559L7.21144 110.325L8.68905 115.037L10.2944 119.695L12.0091 124.308M2.04892 85.844L12.0091 124.308M15.2015 28.848L15.7761 28.2974L16.369 27.7377L17.272 26.8982L17.5821 26.6184L18.8317 25.49L20.1269 24.3526L22.8267 22.0688L25.6725 19.7579L28.6551 17.42L31.7562 15.0639L34.976 12.6989L38.3051 10.3068M15.2015 28.848L38.3051 10.3068M15.2015 28.848L14.0705 29.9493L13.0033 31.0416L11.9726 32.1068L10.9876 33.1719L9.16335 35.2481L7.50332 37.2792L6.00746 39.2651L4.66667 41.2059L3.45357 43.1016L2.36816 44.9701M15.2015 28.848L2.36816 44.9701M53.063 54.5477L48.6849 51.3702L44.2338 49.4204L39.8648 48.7795L35.7148 49.4475L31.9113 51.4063L28.573 54.6018L25.8184 58.9257L23.7297 64.2426L22.3798 70.3809L21.796 77.1421L22.0058 84.3185L23.0091 91.6754L24.7695 98.9692L27.2231 105.983L30.2968 112.482L33.8997 118.26L37.9038 123.134L42.1907 126.953L46.6235 129.579L51.0473 130.943L55.3433 131.006L59.3474 129.742L62.9502 127.214L66.0423 123.495L68.505 118.711M69.0522 116.572L67.1915 122.602L64.6376 127.72L61.4544 131.773L57.7421 134.653L53.592 136.277L49.1318 136.593L44.4892 135.591L39.801 133.299L35.204 129.787L30.8259 125.156L26.7852 119.542L23.2098 113.105L20.1998 106.019L17.8375 98.4998L16.1957 90.7637L15.3201 83.0366L15.2289 75.5262L15.9403 68.4582L17.427 62.031L19.6343 56.4343L22.5166 51.8306L25.9826 48.3552L29.9229 46.0985L34.2463 45.1236L38.8068 45.4666L43.495 47.1185L48.1559 50.0342L52.6617 54.1144L56.8847 59.2597L60.7065 65.3078L64.0083 72.096L66.7081 79.4169L68.7148 87.0717L69.9826 94.8348L70.4569 102.49L70.1468 109.801L69.0522 116.572Z" stroke="#CBD2D9" stroke-miterlimit="10" stroke-linecap="round" stroke-linejoin="round"/>
<path d="M80.0333 82.1976L91.7599 79.3655L107.718 75.5161L123.667 71.6667M7.66669 99.6667L39.5825 91.9678L51.3091 89.1357L7.66669 99.6667ZM57.6923 87.596L73.6502 83.7374L57.6923 87.596Z" stroke="#CBD2D9" stroke-width="0.23" stroke-miterlimit="10" stroke-linecap="round" stroke-linejoin="round"/>
</svg>
